<svg width="712" height="208" viewBox="0 0 712 208" fill="none" xmlns="http://www.w3.org/2000/svg">
<path d="M19.1364 72L0.0454546 2.18182H8.63636L23.2273 59.0455H23.9091L38.7727 2.18182H48.3182L63.1818 59.0455H63.8636L78.4545 2.18182H87.0455L67.9545 72H59.2273L43.8182 16.3636H43.2727L27.8636 72H19.1364ZM113.568 73.0909C108.523 73.0909 104.17 71.9773 100.511 69.75C96.875 67.5 94.0682 64.3636 92.0909 60.3409C90.1364 56.2955 89.1591 51.5909 89.1591 46.2273C89.1591 40.8636 90.1364 36.1364 92.0909 32.0455C94.0682 27.9318 96.8182 24.7273 100.341 22.4318C103.886 20.1136 108.023 18.9545 112.75 18.9545C115.477 18.9545 118.17 19.4091 120.83 20.3182C123.489 21.2273 125.909 22.7045 128.091 24.75C130.273 26.7727 132.011 29.4545 133.307 32.7955C134.602 36.1364 135.25 40.25 135.25 45.1364V48.5455H94.8864V41.5909H127.068C127.068 38.6364 126.477 36 125.295 33.6818C124.136 31.3636 122.477 29.5341 120.318 28.1932C118.182 26.8523 115.659 26.1818 112.75 26.1818C109.545 26.1818 106.773 26.9773 104.432 28.5682C102.114 30.1364 100.33 32.1818 99.0795 34.7045C97.8295 37.2273 97.2045 39.9318 97.2045 42.8182V47.4545C97.2045 51.4091 97.8864 54.7614 99.25 57.5114C100.636 60.2386 102.557 62.3182 105.011 63.75C107.466 65.1591 110.318 65.8636 113.568 65.8636C115.682 65.8636 117.591 65.5682 119.295 64.9773C121.023 64.3636 122.511 63.4545 123.761 62.25C125.011 61.0227 125.977 59.5 126.659 57.6818L134.432 59.8636C133.614 62.5 132.239 64.8182 130.307 66.8182C128.375 68.7955 125.989 70.3409 123.148 71.4545C120.307 72.5455 117.114 73.0909 113.568 73.0909ZM174.489 72V19.6364H182.261V27.8182H182.943C184.034 25.0227 185.795 22.8523 188.227 21.3068C190.659 19.7386 193.58 18.9545 196.989 18.9545C200.443 18.9545 203.318 19.7386 205.614 21.3068C207.932 22.8523 209.739 25.0227 211.034 27.8182H211.58C212.92 25.1136 214.932 22.9659 217.614 21.375C220.295 19.7614 223.511 18.9545 227.261 18.9545C231.943 18.9545 235.773 20.4205 238.75 23.3523C241.727 26.2614 243.216 30.7955 243.216 36.9545V72H235.17V36.9545C235.17 33.0909 234.114 30.3295 232 28.6705C229.886 27.0114 227.398 26.1818 224.534 26.1818C220.852 26.1818 218 27.2955 215.977 29.5227C213.955 31.7273 212.943 34.5227 212.943 37.9091V72H204.761V36.1364C204.761 33.1591 203.795 30.7614 201.864 28.9432C199.932 27.1023 197.443 26.1818 194.398 26.1818C192.307 26.1818 190.352 26.7386 188.534 27.8523C186.739 28.9659 185.284 30.5114 184.17 32.4886C183.08 34.4432 182.534 36.7045 182.534 39.2727V72H174.489ZM273.335 73.2273C270.017 73.2273 267.006 72.6023 264.301 71.3523C261.597 70.0795 259.449 68.25 257.858 65.8636C256.267 63.4545 255.472 60.5455 255.472 57.1364C255.472 54.1364 256.063 51.7045 257.244 49.8409C258.426 47.9545 260.006 46.4773 261.983 45.4091C263.96 44.3409 266.142 43.5455 268.528 43.0227C270.938 42.4773 273.358 42.0455 275.79 41.7273C278.972 41.3182 281.551 41.0114 283.528 40.8068C285.528 40.5795 286.983 40.2045 287.892 39.6818C288.824 39.1591 289.29 38.25 289.29 36.9545V36.6818C289.29 33.3182 288.369 30.7045 286.528 28.8409C284.71 26.9773 281.949 26.0455 278.244 26.0455C274.403 26.0455 271.392 26.8864 269.21 28.5682C267.028 30.25 265.494 32.0455 264.608 33.9545L256.972 31.2273C258.335 28.0455 260.153 25.5682 262.426 23.7955C264.722 22 267.222 20.75 269.926 20.0455C272.653 19.3182 275.335 18.9545 277.972 18.9545C279.653 18.9545 281.585 19.1591 283.767 19.5682C285.972 19.9545 288.097 20.7614 290.142 21.9886C292.21 23.2159 293.926 25.0682 295.29 27.5455C296.653 30.0227 297.335 33.3409 297.335 37.5V72H289.29V64.9091H288.881C288.335 66.0455 287.426 67.2614 286.153 68.5568C284.881 69.8523 283.188 70.9545 281.074 71.8636C278.96 72.7727 276.381 73.2273 273.335 73.2273ZM274.562 66C277.744 66 280.426 65.375 282.608 64.125C284.813 62.875 286.472 61.2614 287.585 59.2841C288.722 57.3068 289.29 55.2273 289.29 53.0455V45.6818C288.949 46.0909 288.199 46.4659 287.04 46.8068C285.903 47.125 284.585 47.4091 283.085 47.6591C281.608 47.8864 280.165 48.0909 278.756 48.2727C277.369 48.4318 276.244 48.5682 275.381 48.6818C273.29 48.9545 271.335 49.3977 269.517 50.0114C267.722 50.6023 266.267 51.5 265.153 52.7045C264.063 53.8864 263.517 55.5 263.517 57.5455C263.517 60.3409 264.551 62.4545 266.619 63.8864C268.71 65.2955 271.358 66 274.562 66ZM319.52 52.9091L319.384 42.9545H321.02L343.929 19.6364H353.884L329.474 44.3182H328.793L319.52 52.9091ZM312.02 72V2.18182H320.065V72H312.02ZM345.293 72L324.838 46.0909L330.565 40.5L355.52 72H345.293ZM384.037 73.0909C378.991 73.0909 374.639 71.9773 370.98 69.75C367.344 67.5 364.537 64.3636 362.56 60.3409C360.605 56.2955 359.628 51.5909 359.628 46.2273C359.628 40.8636 360.605 36.1364 362.56 32.0455C364.537 27.9318 367.287 24.7273 370.81 22.4318C374.355 20.1136 378.491 18.9545 383.219 18.9545C385.946 18.9545 388.639 19.4091 391.298 20.3182C393.957 21.2273 396.378 22.7045 398.56 24.75C400.741 26.7727 402.48 29.4545 403.776 32.7955C405.071 36.1364 405.719 40.25 405.719 45.1364V48.5455H365.355V41.5909H397.537C397.537 38.6364 396.946 36 395.764 33.6818C394.605 31.3636 392.946 29.5341 390.787 28.1932C388.651 26.8523 386.128 26.1818 383.219 26.1818C380.014 26.1818 377.241 26.9773 374.901 28.5682C372.582 30.1364 370.798 32.1818 369.548 34.7045C368.298 37.2273 367.673 39.9318 367.673 42.8182V47.4545C367.673 51.4091 368.355 54.7614 369.719 57.5114C371.105 60.2386 373.026 62.3182 375.48 63.75C377.935 65.1591 380.787 65.8636 384.037 65.8636C386.151 65.8636 388.06 65.5682 389.764 64.9773C391.491 64.3636 392.98 63.4545 394.23 62.25C395.48 61.0227 396.446 59.5 397.128 57.6818L404.901 59.8636C404.082 62.5 402.707 64.8182 400.776 66.8182C398.844 68.7955 396.457 70.3409 393.616 71.4545C390.776 72.5455 387.582 73.0909 384.037 73.0909ZM466.23 73.0909C461.321 73.0909 457.094 71.9318 453.548 69.6136C450.003 67.2955 447.276 64.1023 445.366 60.0341C443.457 55.9659 442.503 51.3182 442.503 46.0909C442.503 40.7727 443.48 36.0795 445.435 32.0114C447.412 27.9205 450.162 24.7273 453.685 22.4318C457.23 20.1136 461.366 18.9545 466.094 18.9545C469.776 18.9545 473.094 19.6364 476.048 21C479.003 22.3636 481.423 24.2727 483.31 26.7273C485.196 29.1818 486.366 32.0455 486.821 35.3182H478.776C478.162 32.9318 476.798 30.8182 474.685 28.9773C472.594 27.1136 469.776 26.1818 466.23 26.1818C463.094 26.1818 460.344 27 457.98 28.6364C455.639 30.25 453.81 32.5341 452.491 35.4886C451.196 38.4205 450.548 41.8636 450.548 45.8182C450.548 49.8636 451.185 53.3864 452.457 56.3864C453.753 59.3864 455.571 61.7159 457.912 63.375C460.276 65.0341 463.048 65.8636 466.23 65.8636C468.321 65.8636 470.219 65.5 471.923 64.7727C473.628 64.0455 475.071 63 476.253 61.6364C477.435 60.2727 478.276 58.6364 478.776 56.7273H486.821C486.366 59.8182 485.241 62.6023 483.446 65.0795C481.673 67.5341 479.321 69.4886 476.389 70.9432C473.48 72.375 470.094 73.0909 466.23 73.0909ZM513.991 73.2273C510.673 73.2273 507.662 72.6023 504.957 71.3523C502.253 70.0795 500.105 68.25 498.514 65.8636C496.923 63.4545 496.128 60.5455 496.128 57.1364C496.128 54.1364 496.719 51.7045 497.901 49.8409C499.082 47.9545 500.662 46.4773 502.639 45.4091C504.616 44.3409 506.798 43.5455 509.185 43.0227C511.594 42.4773 514.014 42.0455 516.446 41.7273C519.628 41.3182 522.207 41.0114 524.185 40.8068C526.185 40.5795 527.639 40.2045 528.548 39.6818C529.48 39.1591 529.946 38.25 529.946 36.9545V36.6818C529.946 33.3182 529.026 30.7045 527.185 28.8409C525.366 26.9773 522.605 26.0455 518.901 26.0455C515.06 26.0455 512.048 26.8864 509.866 28.5682C507.685 30.25 506.151 32.0455 505.264 33.9545L497.628 31.2273C498.991 28.0455 500.81 25.5682 503.082 23.7955C505.378 22 507.878 20.75 510.582 20.0455C513.31 19.3182 515.991 18.9545 518.628 18.9545C520.31 18.9545 522.241 19.1591 524.423 19.5682C526.628 19.9545 528.753 20.7614 530.798 21.9886C532.866 23.2159 534.582 25.0682 535.946 27.5455C537.31 30.0227 537.991 33.3409 537.991 37.5V72H529.946V64.9091H529.537C528.991 66.0455 528.082 67.2614 526.81 68.5568C525.537 69.8523 523.844 70.9545 521.73 71.8636C519.616 72.7727 517.037 73.2273 513.991 73.2273ZM515.219 66C518.401 66 521.082 65.375 523.264 64.125C525.469 62.875 527.128 61.2614 528.241 59.2841C529.378 57.3068 529.946 55.2273 529.946 53.0455V45.6818C529.605 46.0909 528.855 46.4659 527.696 46.8068C526.56 47.125 525.241 47.4091 523.741 47.6591C522.264 47.8864 520.821 48.0909 519.412 48.2727C518.026 48.4318 516.901 48.5682 516.037 48.6818C513.946 48.9545 511.991 49.3977 510.173 50.0114C508.378 50.6023 506.923 51.5 505.81 52.7045C504.719 53.8864 504.173 55.5 504.173 57.5455C504.173 60.3409 505.207 62.4545 507.276 63.8864C509.366 65.2955 512.014 66 515.219 66ZM552.676 72V19.6364H560.449V27.5455H560.994C561.949 24.9545 563.676 22.8523 566.176 21.2386C568.676 19.625 571.494 18.8182 574.631 18.8182C575.222 18.8182 575.96 18.8295 576.847 18.8523C577.733 18.875 578.403 18.9091 578.858 18.9545V27.1364C578.585 27.0682 577.96 26.9659 576.983 26.8295C576.028 26.6705 575.017 26.5909 573.949 26.5909C571.403 26.5909 569.131 27.125 567.131 28.1932C565.153 29.2386 563.585 30.6932 562.426 32.5568C561.29 34.3977 560.722 36.5 560.722 38.8636V72H552.676ZM588.395 72V19.6364H596.44V72H588.395ZM592.486 10.9091C590.918 10.9091 589.565 10.375 588.429 9.30682C587.315 8.23864 586.759 6.95455 586.759 5.45455C586.759 3.95455 587.315 2.67045 588.429 1.60227C589.565 0.53409 590.918 0 592.486 0C594.054 0 595.395 0.53409 596.509 1.60227C597.645 2.67045 598.213 3.95455 598.213 5.45455C598.213 6.95455 597.645 8.23864 596.509 9.30682C595.395 10.375 594.054 10.9091 592.486 10.9091ZM619.222 40.5V72H611.176V19.6364H618.949V27.8182H619.631C620.858 25.1591 622.722 23.0227 625.222 21.4091C627.722 19.7727 630.949 18.9545 634.903 18.9545C638.449 18.9545 641.551 19.6818 644.21 21.1364C646.869 22.5682 648.938 24.75 650.415 27.6818C651.892 30.5909 652.631 34.2727 652.631 38.7273V72H644.585V39.2727C644.585 35.1591 643.517 31.9545 641.381 29.6591C639.244 27.3409 636.313 26.1818 632.585 26.1818C630.017 26.1818 627.722 26.7386 625.699 27.8523C623.699 28.9659 622.119 30.5909 620.96 32.7273C619.801 34.8636 619.222 37.4545 619.222 40.5ZM688.469 92.7273C684.582 92.7273 681.241 92.2273 678.446 91.2273C675.651 90.25 673.321 88.9545 671.457 87.3409C669.616 85.75 668.151 84.0455 667.06 82.2273L673.469 77.7273C674.196 78.6818 675.116 79.7727 676.23 81C677.344 82.25 678.866 83.3295 680.798 84.2386C682.753 85.1705 685.31 85.6364 688.469 85.6364C692.696 85.6364 696.185 84.6136 698.935 82.5682C701.685 80.5227 703.06 77.3182 703.06 72.9545V62.3182H702.378C701.787 63.2727 700.946 64.4545 699.855 65.8636C698.787 67.25 697.241 68.4886 695.219 69.5795C693.219 70.6477 690.514 71.1818 687.105 71.1818C682.878 71.1818 679.082 70.1818 675.719 68.1818C672.378 66.1818 669.73 63.2727 667.776 59.4545C665.844 55.6364 664.878 51 664.878 45.5455C664.878 40.1818 665.821 35.5114 667.707 31.5341C669.594 27.5341 672.219 24.4432 675.582 22.2614C678.946 20.0568 682.832 18.9545 687.241 18.9545C690.651 18.9545 693.355 19.5227 695.355 20.6591C697.378 21.7727 698.923 23.0455 699.991 24.4773C701.082 25.8864 701.923 27.0455 702.514 27.9545H703.332V19.6364H711.105V73.5C711.105 78 710.082 81.6591 708.037 84.4773C706.014 87.3182 703.287 89.3977 699.855 90.7159C696.446 92.0568 692.651 92.7273 688.469 92.7273ZM688.196 63.9545C691.423 63.9545 694.151 63.2159 696.378 61.7386C698.605 60.2614 700.298 58.1364 701.457 55.3636C702.616 52.5909 703.196 49.2727 703.196 45.4091C703.196 41.6364 702.628 38.3068 701.491 35.4205C700.355 32.5341 698.673 30.2727 696.446 28.6364C694.219 27 691.469 26.1818 688.196 26.1818C684.787 26.1818 681.946 27.0455 679.673 28.7727C677.423 30.5 675.73 32.8182 674.594 35.7273C673.48 38.6364 672.923 41.8636 672.923 45.4091C672.923 49.0455 673.491 52.2614 674.628 55.0568C675.787 57.8295 677.491 60.0114 679.741 61.6023C682.014 63.1705 684.832 63.9545 688.196 63.9545Z" fill="black"/>
<path d="M26.6364 189.091C21.9091 189.091 17.7614 187.966 14.1932 185.716C10.6477 183.466 7.875 180.318 5.875 176.273C3.89773 172.227 2.90909 167.5 2.90909 162.091C2.90909 156.636 3.89773 151.875 5.875 147.807C7.875 143.739 10.6477 140.58 14.1932 138.33C17.7614 136.08 21.9091 134.955 26.6364 134.955C31.3636 134.955 35.5 136.08 39.0455 138.33C42.6136 140.58 45.3864 143.739 47.3636 147.807C49.3636 151.875 50.3636 156.636 50.3636 162.091C50.3636 167.5 49.3636 172.227 47.3636 176.273C45.3864 180.318 42.6136 183.466 39.0455 185.716C35.5 187.966 31.3636 189.091 26.6364 189.091ZM26.6364 181.864C30.2273 181.864 33.1818 180.943 35.5 179.102C37.8182 177.261 39.5341 174.841 40.6477 171.841C41.7614 168.841 42.3182 165.591 42.3182 162.091C42.3182 158.591 41.7614 155.33 40.6477 152.307C39.5341 149.284 37.8182 146.841 35.5 144.977C33.1818 143.114 30.2273 142.182 26.6364 142.182C23.0455 142.182 20.0909 143.114 17.7727 144.977C15.4545 146.841 13.7386 149.284 12.625 152.307C11.5114 155.33 10.9545 158.591 10.9545 162.091C10.9545 165.591 11.5114 168.841 12.625 171.841C13.7386 174.841 15.4545 177.261 17.7727 179.102C20.0909 180.943 23.0455 181.864 26.6364 181.864ZM85.9631 135.636V142.455H57.7358V135.636H85.9631ZM66.1903 188V128.409C66.1903 125.409 66.8949 122.909 68.304 120.909C69.7131 118.909 71.5426 117.409 73.7926 116.409C76.0426 115.409 78.4176 114.909 80.9176 114.909C82.8949 114.909 84.5085 115.068 85.7585 115.386C87.0085 115.705 87.9403 116 88.554 116.273L86.2358 123.227C85.8267 123.091 85.2585 122.92 84.5312 122.716C83.8267 122.511 82.8949 122.409 81.7358 122.409C79.0767 122.409 77.1563 123.08 75.9744 124.42C74.8153 125.761 74.2358 127.727 74.2358 130.318V188H66.1903ZM124.239 207.636V135.636H132.011V143.955H132.966C133.557 143.045 134.375 141.886 135.42 140.477C136.489 139.045 138.011 137.773 139.989 136.659C141.989 135.523 144.693 134.955 148.102 134.955C152.511 134.955 156.398 136.057 159.761 138.261C163.125 140.466 165.75 143.591 167.636 147.636C169.523 151.682 170.466 156.455 170.466 161.955C170.466 167.5 169.523 172.307 167.636 176.375C165.75 180.42 163.136 183.557 159.795 185.784C156.455 187.989 152.602 189.091 148.239 189.091C144.875 189.091 142.182 188.534 140.159 187.42C138.136 186.284 136.58 185 135.489 183.568C134.398 182.114 133.557 180.909 132.966 179.955H132.284V207.636H124.239ZM132.148 161.818C132.148 165.773 132.727 169.261 133.886 172.284C135.045 175.284 136.739 177.636 138.966 179.341C141.193 181.023 143.92 181.864 147.148 181.864C150.511 181.864 153.318 180.977 155.568 179.205C157.841 177.409 159.545 175 160.682 171.977C161.841 168.932 162.42 165.545 162.42 161.818C162.42 158.136 161.852 154.818 160.716 151.864C159.602 148.886 157.909 146.534 155.636 144.807C153.386 143.057 150.557 142.182 147.148 142.182C143.875 142.182 141.125 143.011 138.898 144.67C136.67 146.307 134.989 148.602 133.852 151.557C132.716 154.489 132.148 157.909 132.148 161.818ZM190.784 118.182V188H182.739V118.182H190.784ZM220.929 189.227C217.611 189.227 214.599 188.602 211.895 187.352C209.19 186.08 207.043 184.25 205.452 181.864C203.861 179.455 203.065 176.545 203.065 173.136C203.065 170.136 203.656 167.705 204.838 165.841C206.02 163.955 207.599 162.477 209.577 161.409C211.554 160.341 213.736 159.545 216.122 159.023C218.531 158.477 220.952 158.045 223.384 157.727C226.565 157.318 229.145 157.011 231.122 156.807C233.122 156.58 234.577 156.205 235.486 155.682C236.418 155.159 236.884 154.25 236.884 152.955V152.682C236.884 149.318 235.963 146.705 234.122 144.841C232.304 142.977 229.543 142.045 225.838 142.045C221.997 142.045 218.986 142.886 216.804 144.568C214.622 146.25 213.088 148.045 212.202 149.955L204.565 147.227C205.929 144.045 207.747 141.568 210.02 139.795C212.315 138 214.815 136.75 217.52 136.045C220.247 135.318 222.929 134.955 225.565 134.955C227.247 134.955 229.179 135.159 231.361 135.568C233.565 135.955 235.69 136.761 237.736 137.989C239.804 139.216 241.52 141.068 242.884 143.545C244.247 146.023 244.929 149.341 244.929 153.5V188H236.884V180.909H236.474C235.929 182.045 235.02 183.261 233.747 184.557C232.474 185.852 230.781 186.955 228.668 187.864C226.554 188.773 223.974 189.227 220.929 189.227ZM222.156 182C225.338 182 228.02 181.375 230.202 180.125C232.406 178.875 234.065 177.261 235.179 175.284C236.315 173.307 236.884 171.227 236.884 169.045V161.682C236.543 162.091 235.793 162.466 234.634 162.807C233.497 163.125 232.179 163.409 230.679 163.659C229.202 163.886 227.759 164.091 226.349 164.273C224.963 164.432 223.838 164.568 222.974 164.682C220.884 164.955 218.929 165.398 217.111 166.011C215.315 166.602 213.861 167.5 212.747 168.705C211.656 169.886 211.111 171.5 211.111 173.545C211.111 176.341 212.145 178.455 214.213 179.886C216.304 181.295 218.952 182 222.156 182ZM267.659 156.5V188H259.614V135.636H267.386V143.818H268.068C269.295 141.159 271.159 139.023 273.659 137.409C276.159 135.773 279.386 134.955 283.341 134.955C286.886 134.955 289.989 135.682 292.648 137.136C295.307 138.568 297.375 140.75 298.852 143.682C300.33 146.591 301.068 150.273 301.068 154.727V188H293.023V155.273C293.023 151.159 291.955 147.955 289.818 145.659C287.682 143.341 284.75 142.182 281.023 142.182C278.455 142.182 276.159 142.739 274.136 143.852C272.136 144.966 270.557 146.591 269.398 148.727C268.239 150.864 267.659 153.455 267.659 156.5ZM338.543 135.636V142.455H311.406V135.636H338.543ZM319.315 123.091H327.361V173C327.361 175.273 327.69 176.977 328.349 178.114C329.031 179.227 329.895 179.977 330.94 180.364C332.009 180.727 333.134 180.909 334.315 180.909C335.202 180.909 335.929 180.864 336.497 180.773C337.065 180.659 337.52 180.568 337.861 180.5L339.497 187.727C338.952 187.932 338.19 188.136 337.213 188.341C336.236 188.568 334.997 188.682 333.497 188.682C331.224 188.682 328.997 188.193 326.815 187.216C324.656 186.239 322.861 184.75 321.429 182.75C320.02 180.75 319.315 178.227 319.315 175.182V123.091ZM399.599 189.091C394.554 189.091 390.202 187.977 386.543 185.75C382.906 183.5 380.099 180.364 378.122 176.341C376.168 172.295 375.19 167.591 375.19 162.227C375.19 156.864 376.168 152.136 378.122 148.045C380.099 143.932 382.849 140.727 386.372 138.432C389.918 136.114 394.054 134.955 398.781 134.955C401.509 134.955 404.202 135.409 406.861 136.318C409.52 137.227 411.94 138.705 414.122 140.75C416.304 142.773 418.043 145.455 419.338 148.795C420.634 152.136 421.281 156.25 421.281 161.136V164.545H380.918V157.591H413.099C413.099 154.636 412.509 152 411.327 149.682C410.168 147.364 408.509 145.534 406.349 144.193C404.213 142.852 401.69 142.182 398.781 142.182C395.577 142.182 392.804 142.977 390.463 144.568C388.145 146.136 386.361 148.182 385.111 150.705C383.861 153.227 383.236 155.932 383.236 158.818V163.455C383.236 167.409 383.918 170.761 385.281 173.511C386.668 176.239 388.588 178.318 391.043 179.75C393.497 181.159 396.349 181.864 399.599 181.864C401.713 181.864 403.622 181.568 405.327 180.977C407.054 180.364 408.543 179.455 409.793 178.25C411.043 177.023 412.009 175.5 412.69 173.682L420.463 175.864C419.645 178.5 418.27 180.818 416.338 182.818C414.406 184.795 412.02 186.341 409.179 187.455C406.338 188.545 403.145 189.091 399.599 189.091ZM448.929 189.227C445.611 189.227 442.599 188.602 439.895 187.352C437.19 186.08 435.043 184.25 433.452 181.864C431.861 179.455 431.065 176.545 431.065 173.136C431.065 170.136 431.656 167.705 432.838 165.841C434.02 163.955 435.599 162.477 437.577 161.409C439.554 160.341 441.736 159.545 444.122 159.023C446.531 158.477 448.952 158.045 451.384 157.727C454.565 157.318 457.145 157.011 459.122 156.807C461.122 156.58 462.577 156.205 463.486 155.682C464.418 155.159 464.884 154.25 464.884 152.955V152.682C464.884 149.318 463.963 146.705 462.122 144.841C460.304 142.977 457.543 142.045 453.838 142.045C449.997 142.045 446.986 142.886 444.804 144.568C442.622 146.25 441.088 148.045 440.202 149.955L432.565 147.227C433.929 144.045 435.747 141.568 438.02 139.795C440.315 138 442.815 136.75 445.52 136.045C448.247 135.318 450.929 134.955 453.565 134.955C455.247 134.955 457.179 135.159 459.361 135.568C461.565 135.955 463.69 136.761 465.736 137.989C467.804 139.216 469.52 141.068 470.884 143.545C472.247 146.023 472.929 149.341 472.929 153.5V188H464.884V180.909H464.474C463.929 182.045 463.02 183.261 461.747 184.557C460.474 185.852 458.781 186.955 456.668 187.864C454.554 188.773 451.974 189.227 448.929 189.227ZM450.156 182C453.338 182 456.02 181.375 458.202 180.125C460.406 178.875 462.065 177.261 463.179 175.284C464.315 173.307 464.884 171.227 464.884 169.045V161.682C464.543 162.091 463.793 162.466 462.634 162.807C461.497 163.125 460.179 163.409 458.679 163.659C457.202 163.886 455.759 164.091 454.349 164.273C452.963 164.432 451.838 164.568 450.974 164.682C448.884 164.955 446.929 165.398 445.111 166.011C443.315 166.602 441.861 167.5 440.747 168.705C439.656 169.886 439.111 171.5 439.111 173.545C439.111 176.341 440.145 178.455 442.213 179.886C444.304 181.295 446.952 182 450.156 182ZM524.705 147.364L517.477 149.409C517.023 148.205 516.352 147.034 515.466 145.898C514.602 144.739 513.42 143.784 511.92 143.034C510.42 142.284 508.5 141.909 506.159 141.909C502.955 141.909 500.284 142.648 498.148 144.125C496.034 145.58 494.977 147.432 494.977 149.682C494.977 151.682 495.705 153.261 497.159 154.42C498.614 155.58 500.886 156.545 503.977 157.318L511.75 159.227C516.432 160.364 519.92 162.102 522.216 164.443C524.511 166.761 525.659 169.75 525.659 173.409C525.659 176.409 524.795 179.091 523.068 181.455C521.364 183.818 518.977 185.682 515.909 187.045C512.841 188.409 509.273 189.091 505.205 189.091C499.864 189.091 495.443 187.932 491.943 185.614C488.443 183.295 486.227 179.909 485.295 175.455L492.932 173.545C493.659 176.364 495.034 178.477 497.057 179.886C499.102 181.295 501.773 182 505.068 182C508.818 182 511.795 181.205 514 179.614C516.227 178 517.341 176.068 517.341 173.818C517.341 172 516.705 170.477 515.432 169.25C514.159 168 512.205 167.068 509.568 166.455L500.841 164.409C496.045 163.273 492.523 161.511 490.273 159.125C488.045 156.716 486.932 153.705 486.932 150.091C486.932 147.136 487.761 144.523 489.42 142.25C491.102 139.977 493.386 138.193 496.273 136.898C499.182 135.602 502.477 134.955 506.159 134.955C511.341 134.955 515.409 136.091 518.364 138.364C521.341 140.636 523.455 143.636 524.705 147.364ZM542.952 207.636C541.588 207.636 540.372 207.523 539.304 207.295C538.236 207.091 537.497 206.886 537.088 206.682L539.134 199.591C541.088 200.091 542.815 200.273 544.315 200.136C545.815 200 547.145 199.33 548.304 198.125C549.486 196.943 550.565 195.023 551.543 192.364L553.043 188.273L533.679 135.636H542.406L556.861 177.364H557.406L571.861 135.636H580.588L558.361 195.636C557.361 198.341 556.122 200.58 554.645 202.352C553.168 204.148 551.452 205.477 549.497 206.341C547.565 207.205 545.384 207.636 542.952 207.636Z" fill="#14B910"/>
</svg>
